<?xml version="1.0" encoding="UTF-8" standalone="no"?>
<svg
   xmlns:dc="http://purl.org/dc/elements/1.1/"
   xmlns:cc="http://creativecommons.org/ns#"
   xmlns:rdf="http://www.w3.org/1999/02/22-rdf-syntax-ns#"
   xmlns:svg="http://www.w3.org/2000/svg"
   xmlns="http://www.w3.org/2000/svg"
   xmlns:sodipodi="http://sodipodi.sourceforge.net/DTD/sodipodi-0.dtd"
   xmlns:inkscape="http://www.inkscape.org/namespaces/inkscape"
   version="1.1"
   id="imgView"
   x="0px"
   y="0px"
   viewBox="0 0 1451.3689 1253.5383"
   xml:space="preserve"
   class="detail convertSvgInline replaced-svg"
   width="795.72028"
   height="687.25867"
   data-id="81287"
   data-kw="smartphones27"
   inkscape:version="0.91 r13725"
   sodipodi:docname="responsive.svg"><metadata
     id="metadata17"><rdf:RDF><cc:Work
         rdf:about=""><dc:format>image/svg+xml</dc:format><dc:type
           rdf:resource="http://purl.org/dc/dcmitype/StillImage" /><dc:title></dc:title></cc:Work></rdf:RDF></metadata><defs
     id="defs15" /><sodipodi:namedview
     pagecolor="#ffffff"
     bordercolor="#666666"
     borderopacity="1"
     objecttolerance="10"
     gridtolerance="10"
     guidetolerance="10"
     inkscape:pageopacity="0"
     inkscape:pageshadow="2"
     inkscape:window-width="1536"
     inkscape:window-height="917"
     id="namedview13"
     showgrid="false"
     fit-margin-top="0"
     fit-margin-left="0"
     fit-margin-right="0"
     fit-margin-bottom="0"
     inkscape:zoom="0.921875"
     inkscape:cx="128"
     inkscape:cy="362.82647"
     inkscape:window-x="15"
     inkscape:window-y="39"
     inkscape:window-maximized="0"
     inkscape:current-layer="imgView" /><g
     id="g3"
     transform="matrix(3.1432127,0,0,3.1432127,0,-67.874535)"><path
       style="fill:#020202"
       d="m 171.789,54.19 257.362,0 0,173.818 -141.835,0 0,32.597 143.148,0 c 17.253,0 31.283,-14.023 31.283,-31.276 l 0,-176.461 c 0,-17.253 -14.029,-31.274 -31.283,-31.274 l -259.987,0 c -17.253,0 -31.284,14.021 -31.284,31.274 l 0,54.688 32.596,0 0,-53.366 z"
       id="path5"
       inkscape:connector-curvature="0" /><path
       style="fill:#020202"
       d="m 287.316,304.549 90.944,0 29.659,-29.653 c 2.824,-2.832 5.968,-5.107 9.239,-7.098 l -129.842,0 0,36.751 z"
       id="path7"
       inkscape:connector-curvature="0" /><path
       style="fill:#020202"
       d="m 262.869,165.649 c 0,-18.557 -15.097,-33.645 -33.653,-33.645 l -112.926,0 c -18.559,0 -33.654,15.089 -33.654,33.645 l 0,46.029 15.654,0 c 6.366,0 12.311,1.592 17.683,4.218 l 0.318,-51.297 113.982,0 0,157.808 -91.311,0 0,30.766 0,14.896 87.761,0 c -0.302,-5.014 0.168,-10.011 1.401,-14.896 2.085,-8.229 6.168,-16.074 12.605,-22.522 0.016,-0.015 0.025,-0.03 0.039,-0.047 6.335,-6.335 14.023,-10.377 22.1,-12.511 l 0,-152.444 z m -100.62,177.003 c 0,-5.81 4.71,-10.506 10.504,-10.506 5.794,0 10.504,4.696 10.504,10.506 0,5.809 -4.71,10.521 -10.504,10.521 -5.795,-10e-4 -10.504,-4.713 -10.504,-10.521 z"
       id="path9"
       inkscape:connector-curvature="0" /><path
       style="fill:#020202"
       d="m 98.29,232.05 -77.989,0 C 9.104,232.05 0,241.155 0,252.344 l 0,147.765 c 0,11.189 9.104,20.293 20.301,20.293 l 77.989,0 c 11.196,0 20.301,-9.104 20.301,-20.293 l 0,-147.765 C 118.59,241.155 109.486,232.05 98.29,232.05 Z m -73.843,24.447 69.696,0 0,132.23 -69.696,0 0,-132.23 z m 26.229,148.051 c 0,-4.759 3.852,-8.61 8.627,-8.61 4.743,0 8.595,3.852 8.595,8.61 0,4.759 -3.852,8.627 -8.595,8.627 -4.775,0 -8.627,-3.868 -8.627,-8.627 z"
       id="path11"
       inkscape:connector-curvature="0" /></g></svg>